<svg xmlns="http://www.w3.org/2000/svg" width="960" height="560" viewBox="0 0 960 560">
<rect width="100%" height="100%" fill="#ffffff"/>
<text x="480.0" y="34" text-anchor="middle" font-size="20" font-family="Arial, Microsoft YaHei">EDI 分布</text>
<line x1="180" y1="490" x2="920" y2="490" stroke="#333"/>
<text x="172" y="71.6" text-anchor="end" font-size="12" font-family="Arial, Microsoft YaHei">-0.02-0.94</text>
<rect x="180" y="60.0" width="740.0" height="15.5" fill="#2f6f73"/>
<text x="925.0" y="71.6" font-size="11" font-family="Arial, Microsoft YaHei">763</text>
<text x="172" y="93.4" text-anchor="end" font-size="12" font-family="Arial, Microsoft YaHei">0.94-1.9</text>
<rect x="180" y="81.8" width="1.0" height="15.5" fill="#2f6f73"/>
<text x="186.0" y="93.4" font-size="11" font-family="Arial, Microsoft YaHei">1</text>
<text x="172" y="115.2" text-anchor="end" font-size="12" font-family="Arial, Microsoft YaHei">1.9-2.8</text>
<rect x="180" y="103.6" width="0.0" height="15.5" fill="#2f6f73"/>
<text x="185.0" y="115.2" font-size="11" font-family="Arial, Microsoft YaHei">0</text>
<text x="172" y="137.1" text-anchor="end" font-size="12" font-family="Arial, Microsoft YaHei">2.8-3.8</text>
<rect x="180" y="125.5" width="0.0" height="15.5" fill="#2f6f73"/>
<text x="185.0" y="137.1" font-size="11" font-family="Arial, Microsoft YaHei">0</text>
<text x="172" y="158.9" text-anchor="end" font-size="12" font-family="Arial, Microsoft YaHei">3.8-4.7</text>
<rect x="180" y="147.3" width="0.0" height="15.5" fill="#2f6f73"/>
<text x="185.0" y="158.9" font-size="11" font-family="Arial, Microsoft YaHei">0</text>
<text x="172" y="180.7" text-anchor="end" font-size="12" font-family="Arial, Microsoft YaHei">4.7-5.7</text>
<rect x="180" y="169.1" width="0.0" height="15.5" fill="#2f6f73"/>
<text x="185.0" y="180.7" font-size="11" font-family="Arial, Microsoft YaHei">0</text>
<text x="172" y="202.5" text-anchor="end" font-size="12" font-family="Arial, Microsoft YaHei">5.7-6.6</text>
<rect x="180" y="190.9" width="0.0" height="15.5" fill="#2f6f73"/>
<text x="185.0" y="202.5" font-size="11" font-family="Arial, Microsoft YaHei">0</text>
<text x="172" y="224.3" text-anchor="end" font-size="12" font-family="Arial, Microsoft YaHei">6.6-7.6</text>
<rect x="180" y="212.7" width="0.0" height="15.5" fill="#2f6f73"/>
<text x="185.0" y="224.3" font-size="11" font-family="Arial, Microsoft YaHei">0</text>
<text x="172" y="246.1" text-anchor="end" font-size="12" font-family="Arial, Microsoft YaHei">7.6-8.5</text>
<rect x="180" y="234.5" width="0.0" height="15.5" fill="#2f6f73"/>
<text x="185.0" y="246.1" font-size="11" font-family="Arial, Microsoft YaHei">0</text>
<text x="172" y="268.0" text-anchor="end" font-size="12" font-family="Arial, Microsoft YaHei">8.5-9.4</text>
<rect x="180" y="256.4" width="0.0" height="15.5" fill="#2f6f73"/>
<text x="185.0" y="268.0" font-size="11" font-family="Arial, Microsoft YaHei">0</text>
<text x="172" y="289.8" text-anchor="end" font-size="12" font-family="Arial, Microsoft YaHei">9.4-10</text>
<rect x="180" y="278.2" width="0.0" height="15.5" fill="#2f6f73"/>
<text x="185.0" y="289.8" font-size="11" font-family="Arial, Microsoft YaHei">0</text>
<text x="172" y="311.6" text-anchor="end" font-size="12" font-family="Arial, Microsoft YaHei">10-11</text>
<rect x="180" y="300.0" width="0.0" height="15.5" fill="#2f6f73"/>
<text x="185.0" y="311.6" font-size="11" font-family="Arial, Microsoft YaHei">0</text>
<text x="172" y="333.4" text-anchor="end" font-size="12" font-family="Arial, Microsoft YaHei">11-12</text>
<rect x="180" y="321.8" width="1.0" height="15.5" fill="#2f6f73"/>
<text x="186.0" y="333.4" font-size="11" font-family="Arial, Microsoft YaHei">1</text>
<text x="172" y="355.2" text-anchor="end" font-size="12" font-family="Arial, Microsoft YaHei">12-13</text>
<rect x="180" y="343.6" width="0.0" height="15.5" fill="#2f6f73"/>
<text x="185.0" y="355.2" font-size="11" font-family="Arial, Microsoft YaHei">0</text>
<text x="172" y="377.0" text-anchor="end" font-size="12" font-family="Arial, Microsoft YaHei">13-14</text>
<rect x="180" y="365.4" width="0.0" height="15.5" fill="#2f6f73"/>
<text x="185.0" y="377.0" font-size="11" font-family="Arial, Microsoft YaHei">0</text>
<text x="172" y="398.9" text-anchor="end" font-size="12" font-family="Arial, Microsoft YaHei">14-15</text>
<rect x="180" y="387.3" width="0.0" height="15.5" fill="#2f6f73"/>
<text x="185.0" y="398.9" font-size="11" font-family="Arial, Microsoft YaHei">0</text>
<text x="172" y="420.7" text-anchor="end" font-size="12" font-family="Arial, Microsoft YaHei">15-16</text>
<rect x="180" y="409.1" width="0.0" height="15.5" fill="#2f6f73"/>
<text x="185.0" y="420.7" font-size="11" font-family="Arial, Microsoft YaHei">0</text>
<text x="172" y="442.5" text-anchor="end" font-size="12" font-family="Arial, Microsoft YaHei">16-17</text>
<rect x="180" y="430.9" width="0.0" height="15.5" fill="#2f6f73"/>
<text x="185.0" y="442.5" font-size="11" font-family="Arial, Microsoft YaHei">0</text>
<text x="172" y="464.3" text-anchor="end" font-size="12" font-family="Arial, Microsoft YaHei">17-18</text>
<rect x="180" y="452.7" width="0.0" height="15.5" fill="#2f6f73"/>
<text x="185.0" y="464.3" font-size="11" font-family="Arial, Microsoft YaHei">0</text>
<text x="172" y="486.1" text-anchor="end" font-size="12" font-family="Arial, Microsoft YaHei">18-19</text>
<rect x="180" y="474.5" width="1.0" height="15.5" fill="#2f6f73"/>
<text x="186.0" y="486.1" font-size="11" font-family="Arial, Microsoft YaHei">1</text>
<text x="480.0" y="538" text-anchor="middle" font-size="13" font-family="Arial, Microsoft YaHei">EDI 分箱频数</text>
</svg>